<svg xmlns="http://www.w3.org/2000/svg" viewBox="0 0 1644 813"><defs><style>.cls-1{fill:#4f4f4f;}.cls-2{fill:#ededed;}.cls-3{fill:#232323;}.cls-4{fill:#c1c1c1;}.cls-5{fill:none;}</style></defs><g id="Layer_2" data-name="Layer 2"><path class="cls-1" d="M603.36,6397.76l-3.77-1.22-136-247.88s2.75-5.4,4.46-2.93c42.73,61.75,101.66,131.53,120,73.35,7.24-23,23.39-87.28,36.17-139.21.17-.68.34-1.35.5-2l28.52,14.72-46.88,302.69Z" transform="translate(-453 -5688)"/><path class="cls-1" d="M606.25,6394a3.6,3.6,0,1,1-4.27-2.77A3.6,3.6,0,0,1,606.25,6394Z" transform="translate(-453 -5688)"/><path class="cls-1" d="M468.5,6146.7a2.68,2.68,0,1,1-3.18-2.06A2.68,2.68,0,0,1,468.5,6146.7Z" transform="translate(-453 -5688)"/><path class="cls-2" d="M677.64,5761.85l3.77,1.22L817.4,6011s-2.75,5.4-4.46,2.93c-42.73-61.75-101.66-131.53-120-73.35-7.24,23-23.39,87.27-36.17,139.21-.17.67-.34,1.35-.5,2L627.79,6067l46.88-302.69Z" transform="translate(-453 -5688)"/><path class="cls-2" d="M674.75,5765.57a3.6,3.6,0,1,1,4.27,2.77A3.61,3.61,0,0,1,674.75,5765.57Z" transform="translate(-453 -5688)"/><path class="cls-2" d="M812.5,6012.91a2.68,2.68,0,1,1,3.18,2.06A2.69,2.69,0,0,1,812.5,6012.91Z" transform="translate(-453 -5688)"/><path class="cls-3" d="M624.69,6077.85a.13.13,0,0,0,0,.06l.34.11Z" transform="translate(-453 -5688)"/><path class="cls-3" d="M624.52,6077.86l-.07,1c.07-.31.15-.62.23-.92Z" transform="translate(-453 -5688)"/><path class="cls-3" d="M602,6391.27a3.61,3.61,0,0,1,4.27,2.77,3.57,3.57,0,0,1,0,1.26l.05,0,46.88-302.69L625,6078l-.34-.11c-.08.3-.16.61-.23.92L601,6391.67A3.49,3.49,0,0,1,602,6391.27Z" transform="translate(-453 -5688)"/><path class="cls-3" d="M603.48,6398.3a3.58,3.58,0,0,0,2.8-3l-2.92,2.46-2.77-.9-.06.75A3.57,3.57,0,0,0,603.48,6398.3Z" transform="translate(-453 -5688)"/><path class="cls-3" d="M606.25,6394a3.61,3.61,0,0,0-4.27-2.77,3.49,3.49,0,0,0-1,.4l-.39,5.19,2.77.9,2.92-2.46A3.57,3.57,0,0,0,606.25,6394Z" transform="translate(-453 -5688)"/><path class="cls-4" d="M656.41,6082.13s0,0,0-.06l-.34-.11Z" transform="translate(-453 -5688)"/><path class="cls-4" d="M656.58,6082.12l.07-1c-.08.31-.15.62-.23.92Z" transform="translate(-453 -5688)"/><path class="cls-4" d="M679.12,5768.71a3.57,3.57,0,0,1-4.3-4l-.05.05-46.88,302.69L656.08,6082l.34.11c.08-.3.15-.61.23-.92l23.47-312.84A3.49,3.49,0,0,1,679.12,5768.71Z" transform="translate(-453 -5688)"/><path class="cls-4" d="M677.62,5761.67a3.61,3.61,0,0,0-2.8,3l2.91-2.45,2.78.9.06-.75A3.58,3.58,0,0,0,677.62,5761.67Z" transform="translate(-453 -5688)"/><path class="cls-4" d="M674.85,5765.94a3.61,3.61,0,0,0,4.27,2.77,3.49,3.49,0,0,0,1-.4l.39-5.19-2.78-.9-2.91,2.45A3.62,3.62,0,0,0,674.85,5765.94Z" transform="translate(-453 -5688)"/><path d="M816.71,6167c0,17.12-10.87,29.61-29.13,29.61-16.94,0-29.05-10.12-29.05-28.85h12.3c0,11.35,5.49,17.12,16.75,17.12s16.65-7.85,16.65-17.88v-26.3h-20V6129h32.44Z" transform="translate(-453 -5688)"/><path d="M886.54,6129.12v37.93c0,19.59-12,29.62-28.67,29.62-15.89,0-29.42-9.65-29.42-29.62v-37.93h12.39v37.93c0,11.92,6.82,18.26,17.13,18.26s16.17-6.9,16.17-18.26v-37.93Z" transform="translate(-453 -5688)"/><path d="M945.77,6182.76H911.14l-5.68,12.49H891.94l29.7-66.23h13.62L965,6195.25H951.35Zm-17.32-39.83-12.3,28.19h24.6Z" transform="translate(-453 -5688)"/><path d="M1014.17,6128.93h12.48v66.32h-7.75v.09l-34.82-44.75v44.66H971.6V6129h10.12l32.45,41.06Z" transform="translate(-453 -5688)"/><path d="M1098.09,6145c-2.27-3.78-8.52-7.38-15.71-7.38-9.27,0-13.71,3.88-13.71,8.8,0,5.77,6.81,7.38,14.75,8.33,13.82,1.7,26.68,5.29,26.68,21.09,0,14.76-13,21.1-27.81,21.1-13.53,0-23.94-4.16-28.86-16.27l10.41-5.39c2.93,7.28,10.6,10.5,18.64,10.5,7.85,0,15.23-2.75,15.23-9.94,0-6.24-6.53-8.8-15.33-9.74-13.52-1.61-26-5.2-26-20.06,0-13.62,13.43-19.2,25.63-19.3,10.32,0,21,2.94,26,13.15Z" transform="translate(-453 -5688)"/><path d="M1169.14,6195.25h-49.57V6129h49.57v12.11H1132v15.23h35.85V6168H1132V6183h37.18Z" transform="translate(-453 -5688)"/><path d="M1232.62,6148.23c0,5.11-2.46,10-8.61,12.77,7.76,2.37,10.6,10.6,10.6,14.76,0,14.76-11.07,19.49-24.79,19.49h-31.41V6129h31.41C1222.88,6129,1232.62,6134.89,1232.62,6148.23Zm-41.91,7.38h19.11c7.86,0,10.41-3.31,10.41-7.1,0-3-2.46-8.13-10.41-8.13h-19.11Zm0,28h19.11c5.11,0,12.4-1.7,12.4-7.95,0-6-7.29-9.08-12.4-9.08h-19.11Z" transform="translate(-453 -5688)"/><path d="M1290.43,6182.76h-34.62l-5.68,12.49H1236.6l29.71-66.23h13.62l29.7,66.23H1296Zm-17.31-39.83-12.3,28.19h24.6Z" transform="translate(-453 -5688)"/><path d="M1355.14,6145c-2.26-3.78-8.51-7.38-15.7-7.38-9.27,0-13.72,3.88-13.72,8.8,0,5.77,6.82,7.38,14.76,8.33,13.81,1.7,26.68,5.29,26.68,21.09,0,14.76-13.06,21.1-27.81,21.1-13.53,0-23.94-4.16-28.86-16.27l10.41-5.39c2.93,7.28,10.59,10.5,18.64,10.5,7.85,0,15.23-2.75,15.23-9.94,0-6.24-6.53-8.8-15.33-9.74-13.53-1.61-26-5.2-26-20.06,0-13.62,13.44-19.2,25.64-19.3,10.32,0,21,2.94,26,13.15Z" transform="translate(-453 -5688)"/><path d="M1393.94,6140.38h-21V6129h54.49v11.36h-21v54.87h-12.49Z" transform="translate(-453 -5688)"/><path d="M1435.09,6195.25V6129h12.4v66.23Z" transform="translate(-453 -5688)"/><path d="M1506.24,6182.76h-34.63l-5.67,12.49h-13.53l29.71-66.23h13.62l29.7,66.23h-13.62Zm-17.31-39.83-12.3,28.19h24.59Z" transform="translate(-453 -5688)"/><path d="M1574.64,6128.93h12.49v66.32h-7.76v.09l-34.81-44.75v44.66h-12.49V6129h10.12l32.45,41.06Z" transform="translate(-453 -5688)"/><path d="M1664.71,6182.76h-34.62l-5.68,12.49h-13.53l29.71-66.23h13.62l29.71,66.23h-13.63Zm-17.31-39.83-12.3,28.19h24.6Z" transform="translate(-453 -5688)"/><path d="M1719.78,6175.76H1701v19.49h-12.48V6129c10.4,0,20.81-.09,31.22-.09C1752.13,6128.93,1752.22,6175.76,1719.78,6175.76ZM1701,6164.31h18.74c16,0,15.89-23.46,0-23.46H1701Z" transform="translate(-453 -5688)"/><path d="M1799.53,6182.76h-34.62l-5.68,12.49H1745.7l29.71-66.23H1789l29.71,66.23h-13.63Zm-17.31-39.83-12.3,28.19h24.6Z" transform="translate(-453 -5688)"/><path d="M1883.07,6195.25h-14.85l-19.3-22.14h-12v22.14h-12.48v-66.32c10.5,0,21,.09,31.5.09,15.61.1,23.84,10.5,23.84,21.95,0,9.08-4.16,18.26-16.74,20.82l20,22.6Zm-46.17-54.59v21.19h19c7.95,0,11.35-5.3,11.35-10.59s-3.5-10.6-11.35-10.6Z" transform="translate(-453 -5688)"/><path d="M1888.28,6195.25V6129h12.39v66.23Z" transform="translate(-453 -5688)"/><path d="M1970.78,6186.92c-6.82,6.72-15.62,9.84-25.17,9.84-24.6,0-35-16.93-35.1-34.15s11.17-34.91,35.1-34.91a34.18,34.18,0,0,1,24.31,10.12l-8.32,8a22.78,22.78,0,0,0-16-6.24c-16,0-22.9,11.92-22.8,23s6.43,22.42,22.8,22.42a24.39,24.39,0,0,0,16.65-6.72Z" transform="translate(-453 -5688)"/><path d="M1978,6195.25V6129h12.39v66.23Z" transform="translate(-453 -5688)"/><path d="M2069.17,6162.51c-.19,17.13-10.69,34.25-34,34.25s-34.06-16.74-34.06-34.15,11.16-34.91,34.06-34.91S2069.36,6145.2,2069.17,6162.51Zm-55.72.29c.28,10.88,6.15,22.51,21.76,22.51s21.47-11.73,21.66-22.61c.19-11.16-6.06-23.65-21.66-23.65S2013.16,6151.63,2013.45,6162.8Z" transform="translate(-453 -5688)"/><path d="M799.76,6273.07c.26,11.89-7.3,23.93-23.57,23.93H760.46v-46.8h15.73C791.93,6250.2,799.49,6261.57,799.76,6273.07Zm-35.71-19.46v39.91h12.14c13.81,0,20.18-10.43,20-20.45-.2-9.76-6.57-19.46-20-19.46Z" transform="translate(-453 -5688)"/><path d="M811.37,6271.8h27.22v3.27H811.37v18.45h29.34V6297H807.86v-46.8h32v3.41H811.37Z" transform="translate(-453 -5688)"/><path d="M880.14,6259.23c-3.39-5.48-8.83-6.29-14.07-6.35-5.45,0-14.08,2-14.08,9.49,0,5.95,6.38,7.35,14.21,8.82,9,1.74,18.25,3.35,18.25,13.44-.07,10.56-10.62,13.1-18.38,13.1-7.24,0-15.47-3-19.05-10.16l3.18-1.6c2.86,5.68,10.16,8.49,15.87,8.49s14.8-1.61,14.8-9.9c.06-7-7.64-8.55-15.27-10-8.5-1.67-17.19-3.41-17.19-12-.2-9.89,10-13,17.66-13,6.63,0,12.41,1.07,17,7.95Z" transform="translate(-453 -5688)"/><path d="M929,6297l-5.11-11.5H896.13l-5,11.5h-3.85l20.84-46.8H912l20.84,46.8Zm-6.51-14.84L910,6253.68l-12.47,28.48Z" transform="translate(-453 -5688)"/><path d="M975.85,6297h-4.72l-16.06-17.72H942.39V6297h-3.58v-46.8h20.44c10.09,0,15.2,7.29,15.27,14.58.07,7.62-4.91,14.3-15.07,14.3Zm-33.46-21.13h16.47c8.09,0,11.68-4.61,11.74-11.16.07-5.48-3.65-11.16-11.35-11.16H942.39Z" transform="translate(-453 -5688)"/><path d="M1018.92,6297h-4.71l-16.06-17.72H985.47V6297h-3.58v-46.8h20.44c10.09,0,15.2,7.29,15.27,14.58.06,7.62-4.92,14.3-15.07,14.3Zm-33.45-21.13h16.46c8.1,0,11.68-4.61,11.75-11.16.07-5.48-3.65-11.16-11.35-11.16H985.47Z" transform="translate(-453 -5688)"/><path d="M1069.77,6273.67c-.07,12.3-7.84,24.13-23.44,24.13s-23.43-11.9-23.43-24.27c0-12.56,7.77-24.06,23.43-24.06S1069.83,6261,1069.77,6273.67Zm-43.35-.07c.07,10.56,6.71,20.86,19.91,20.86s20-10.3,20-20.86c0-10.83-6.63-20.79-20-20.79S1026.36,6262.57,1026.42,6273.6Z" transform="translate(-453 -5688)"/><path d="M1081.84,6250.2v43.39H1108V6297h-29.74v-46.8Z" transform="translate(-453 -5688)"/><path d="M1118.35,6250.2v43.39h26.15V6297h-29.74v-46.8Z" transform="translate(-453 -5688)"/><path d="M1188.24,6297l-5.11-11.5h-27.75l-5,11.5h-3.85l20.84-46.8h3.92l20.84,46.8Zm-6.5-14.84-12.48-28.48-12.48,28.48Z" transform="translate(-453 -5688)"/><path d="M1238.42,6273.07c.26,11.89-7.3,23.93-23.56,23.93h-15.74v-46.8h15.74C1230.59,6250.2,1238.15,6261.57,1238.42,6273.07Zm-35.71-19.46v39.91h12.15c13.8,0,20.17-10.43,20-20.45-.2-9.76-6.57-19.46-20-19.46Z" transform="translate(-453 -5688)"/><path d="M1292.05,6273.67c-.07,12.3-7.83,24.13-23.43,24.13s-23.43-11.9-23.43-24.27c0-12.56,7.76-24.06,23.43-24.06S1292.12,6261,1292.05,6273.67Zm-43.34-.07c.06,10.56,6.7,20.86,19.91,20.86s20-10.3,20-20.86c0-10.83-6.64-20.79-20-20.79S1248.64,6262.57,1248.71,6273.6Z" transform="translate(-453 -5688)"/><path d="M1337.65,6297h-4.72l-16.06-17.72h-12.68V6297h-3.58v-46.8h20.44c10.09,0,15.2,7.29,15.27,14.58.07,7.62-4.91,14.3-15.07,14.3Zm-33.46-21.13h16.47c8.09,0,11.68-4.61,11.74-11.16.07-5.48-3.65-11.16-11.35-11.16h-16.86Z" transform="translate(-453 -5688)"/><path d="M1361.47,6274.2h23.24v3.48h-23.24Z" transform="translate(-453 -5688)"/><path d="M1450.22,6290.51a23.84,23.84,0,0,1-16.93,7c-15.66,0-23.83-11-23.89-23.66s8-24.2,23.89-24.2a23.84,23.84,0,0,1,16.93,7l-2.46,2.14a20.26,20.26,0,0,0-14.47-5.95c-13.54,0-20.51,9.62-20.44,20.85.13,11,7,20.46,20.44,20.46a20.74,20.74,0,0,0,14.54-5.95Z" transform="translate(-453 -5688)"/><path d="M1503.45,6273.67c-.07,12.3-7.83,24.13-23.43,24.13s-23.43-11.9-23.43-24.27c0-12.56,7.76-24.06,23.43-24.06S1503.51,6261,1503.45,6273.67Zm-43.35-.07c.07,10.56,6.71,20.86,19.92,20.86s20-10.3,20-20.86c0-10.83-6.64-20.79-20-20.79S1460,6262.57,1460.1,6273.6Z" transform="translate(-453 -5688)"/><path d="M1513.54,6250.2l31.26,38.71V6250.2h3.52V6297h-1.4l-31.33-38.64V6297H1512v-46.8Z" transform="translate(-453 -5688)"/><path d="M1589.53,6259.23c-3.38-5.48-8.82-6.29-14.07-6.35-5.44,0-14.07,2-14.07,9.49,0,5.95,6.37,7.35,14.2,8.82,9,1.74,18.26,3.35,18.26,13.44-.07,10.56-10.62,13.1-18.39,13.1-7.23,0-15.46-3-19-10.16l3.19-1.6c2.85,5.68,10.15,8.49,15.86,8.49s14.8-1.61,14.8-9.9c.07-7-7.63-8.55-15.26-10-8.5-1.67-17.19-3.41-17.19-12-.2-9.89,10-13,17.65-13,6.64,0,12.41,1.07,17,7.95Z" transform="translate(-453 -5688)"/><path d="M1637,6250.2v29.08c0,24.47-35.58,24.54-35.58,0V6250.2h3.52v29.08c0,20.12,28.54,20.06,28.54,0V6250.2Z" transform="translate(-453 -5688)"/><path d="M1650.33,6250.2v43.39h26.15V6297h-29.73v-46.8Z" transform="translate(-453 -5688)"/><path d="M1689.56,6253.48h-16.79v-3.21h37.17v3.21h-16.8V6297h-3.58Z" transform="translate(-453 -5688)"/><path d="M1761.58,6273.67c-.07,12.3-7.84,24.13-23.44,24.13s-23.43-11.9-23.43-24.27c0-12.56,7.77-24.06,23.43-24.06S1761.64,6261,1761.58,6273.67Zm-43.35-.07c.07,10.56,6.71,20.86,19.91,20.86s20-10.3,20-20.86c0-10.83-6.63-20.79-20-20.79S1718.17,6262.57,1718.23,6273.6Z" transform="translate(-453 -5688)"/><path d="M1807.17,6297h-4.71l-16.06-17.72h-12.68V6297h-3.58v-46.8h20.44c10.09,0,15.2,7.29,15.27,14.58.06,7.62-4.92,14.3-15.07,14.3Zm-33.45-21.13h16.46c8.1,0,11.68-4.61,11.75-11.16.07-5.48-3.65-11.16-11.35-11.16h-16.86Z" transform="translate(-453 -5688)"/><rect id="_Slice_" data-name="&lt;Slice&gt;" class="cls-5" width="1644" height="813"/></g></svg>